<?xml version="1.0" encoding="iso-8859-1"?>
<!-- Generator: Adobe Illustrator 16.0.0, SVG Export Plug-In . SVG Version: 6.00 Build 0)  -->
<!DOCTYPE svg PUBLIC "-//W3C//DTD SVG 1.1//EN" "http://www.w3.org/Graphics/SVG/1.1/DTD/svg11.dtd">
<svg version="1.1" id="Capa_1" xmlns="http://www.w3.org/2000/svg" xmlns:xlink="http://www.w3.org/1999/xlink" x="0px" y="0px"
	 width="469.862px" height="469.863px" viewBox="0 0 469.862 469.863" style="enable-background:new 0 0 469.862 469.863;"
	 xml:space="preserve">
<g>
	<g>
		<g>
			<path d="M447.633,39.537H256.443c-12.261,0-22.232,9.972-22.232,22.23v98.652c0,12.258,9.973,22.229,22.232,22.229h16.787v39.161
				c0,2.707,1.579,5.165,4.043,6.292c0.92,0.42,1.901,0.627,2.875,0.627c1.631,0,3.243-0.576,4.524-1.685l51.379-44.396h111.58
				c12.258,0,22.23-9.973,22.23-22.23v-98.65C469.863,49.509,459.891,39.537,447.633,39.537z M296.686,127.45
				c-9.743,0-17.642-7.9-17.642-17.644s7.897-17.644,17.642-17.644c9.746,0,17.646,7.899,17.646,17.644
				C314.33,119.549,306.432,127.45,296.686,127.45z M352.037,127.45c-9.742,0-17.644-7.9-17.644-17.644s7.9-17.644,17.644-17.644
				c9.744,0,17.645,7.899,17.645,17.644C369.682,119.549,361.781,127.45,352.037,127.45z M407.391,127.45
				c-9.743,0-17.643-7.9-17.643-17.644s7.898-17.644,17.643-17.644c9.745,0,17.644,7.899,17.644,17.644
				C425.033,119.549,417.133,127.45,407.391,127.45z"/>
			<path d="M140.857,134.958c-43.093,0-66.941,22.33-66.506,65.358c0.631,58.932,25.673,94.682,66.506,94.058
				c0,0,66.473,2.695,66.473-94.058C207.33,157.288,184.873,134.958,140.857,134.958z"/>
			<path d="M258.434,339.103l-66.419-26.48l-15.554-13.107c-4.108-3.471-10.176-3.215-13.986,0.574l-21.624,21.504l-21.688-21.511
				c-3.813-3.782-9.872-4.026-13.975-0.566l-15.556,13.106l-66.423,26.484C1.82,347.626,1.836,423.371,0,430.326h281.674
				C279.842,423.388,279.831,347.615,258.434,339.103z"/>
		</g>
	</g>
</g>
<g>
</g>
<g>
</g>
<g>
</g>
<g>
</g>
<g>
</g>
<g>
</g>
<g>
</g>
<g>
</g>
<g>
</g>
<g>
</g>
<g>
</g>
<g>
</g>
<g>
</g>
<g>
</g>
<g>
</g>
</svg>
