<svg id="Capa_1" enable-background="new 0 0 497 497" height="512" viewBox="0 0 497 497" width="512" xmlns="http://www.w3.org/2000/svg"><g><path d="m445.81 452.625c0 24.508-19.907 44.375-44.464 44.375h-305.692c-24.557 0-44.464-19.867-44.464-44.375v-408.25c0-24.508 19.907-44.375 44.464-44.375h190.303c8.857 0 17.35 3.516 23.606 9.773l126.505 126.521c6.239 6.239 9.742 14.694 9.742 23.508z" fill="#f9f8f9"/><path d="m125.65 497h-30c-24.55 0-44.46-19.87-44.46-44.38v-408.24c0-24.51 19.91-44.38 44.46-44.38h30c-24.55 0-44.46 19.87-44.46 44.38v408.24c0 24.51 19.91 44.38 44.46 44.38z" fill="#e3e0e4"/><path d="m445.81 159.8v16.24h-115.96c-33.12 0-60.06-26.95-60.06-60.07v-115.97h16.17c8.85 0 17.35 3.52 23.6 9.77l126.51 126.52c6.24 6.24 9.74 14.7 9.74 23.51z" fill="#e3e0e4"/><path d="m442.82 146.04h-112.97c-16.6 0-30.06-13.46-30.06-30.07v-112.96c3.61 1.63 6.92 3.91 9.77 6.76l126.51 126.52c2.85 2.85 5.12 6.15 6.75 9.75z" fill="#dc4955"/><path d="m427.5 431h-358c-22.091 0-40-17.909-40-40v-146c0-22.091 17.909-40 40-40h358c22.091 0 40 17.909 40 40v146c0 22.091-17.909 40-40 40z" fill="#dc4955"/><path d="m94.5 431h-25c-22.09 0-40-17.91-40-40v-146c0-22.09 17.91-40 40-40h25c-22.09 0-40 17.91-40 40v146c0 22.09 17.91 40 40 40z" fill="#c42430"/><g fill="#f9f8f9"><path d="m150.02 381.496c-35.563 0-64.497-28.933-64.497-64.496s28.934-64.496 64.497-64.496c12.924 0 25.396 3.811 36.065 11.019 3.433 2.319 4.335 6.981 2.017 10.413-2.318 3.434-6.98 4.334-10.413 2.017-8.181-5.527-17.749-8.448-27.669-8.448-27.293 0-49.497 22.204-49.497 49.496s22.204 49.496 49.497 49.496c10.43 0 19.276-3.169 26.294-9.418 1.364-1.215 2.665-2.558 3.865-3.989 2.66-3.176 7.392-3.592 10.565-.931 3.175 2.661 3.592 7.392.931 10.565-1.667 1.989-3.479 3.858-5.386 5.557-9.709 8.646-22.251 13.215-36.269 13.215z"/><path d="m260.65 381.496c-17.367 0-34.295-7.238-45.281-19.361-2.781-3.069-2.548-7.813.521-10.594 3.068-2.779 7.811-2.549 10.594.521 8.19 9.038 20.963 14.434 34.166 14.434 15.102 0 24.954-9.544 26.558-18.524 1.696-9.501-5.322-17.897-19.255-23.037-17.472-6.444-32.971-13.344-33.622-13.634-.361-.161-.709-.351-1.04-.566-9.796-6.387-14.841-17.596-13.167-29.254 1.809-12.598 11.128-22.894 24.322-26.868 27.677-8.336 50.603 10.559 51.564 11.368 3.17 2.665 3.58 7.396.915 10.567-2.659 3.164-7.375 3.577-10.545.934-.176-.147-17.805-14.478-37.608-8.506-7.657 2.307-12.816 7.778-13.801 14.637-.821 5.72 1.438 11.005 6.057 14.249 2.992 1.317 16.987 7.421 32.116 13.001 24.852 9.166 31.188 26.542 28.83 39.746-3.144 17.609-20.91 30.887-41.324 30.887z"/><path d="m369.676 381.496c-17.367 0-34.295-7.238-45.281-19.361-2.781-3.069-2.548-7.813.521-10.594 3.068-2.779 7.812-2.549 10.594.521 8.19 9.038 20.963 14.434 34.166 14.434 15.102 0 24.954-9.544 26.558-18.524 1.696-9.501-5.322-17.897-19.255-23.037-17.472-6.444-32.972-13.344-33.623-13.634-.361-.161-.709-.351-1.04-.566-9.795-6.386-14.841-17.596-13.167-29.253 1.809-12.599 11.128-22.895 24.322-26.869 27.688-8.338 50.603 10.56 51.565 11.368 3.17 2.665 3.58 7.396.915 10.567-2.659 3.164-7.375 3.577-10.545.934-.176-.147-17.806-14.478-37.609-8.506-7.657 2.307-12.816 7.778-13.801 14.637-.821 5.72 1.438 11.005 6.057 14.249 2.993 1.318 16.989 7.421 32.117 13.001 24.852 9.166 31.188 26.542 28.83 39.746-3.145 17.609-20.91 30.887-41.324 30.887z"/></g></g></svg>