<?xml version="1.0"?>
<svg xmlns="http://www.w3.org/2000/svg" height="512px" viewBox="0 0 512 512" width="512px" class=""><g><path d="m121 91c-8.277344 0-15 6.722656-15 15s6.722656 15 15 15 15-6.722656 15-15-6.722656-15-15-15zm0 0" data-original="#000000" class="active-path" data-old_color="#000000" fill="#ED5565"/><path d="m436 0h-360c-41.351562 0-76 34.648438-76 76v360c0 41.351562 34.648438 76 76 76h360c41.351562 0 76-34.648438 76-76v-360c0-41.351562-34.648438-76-76-76zm-270 436c0 8.289062-6.710938 15-15 15h-60c-8.289062 0-15-6.710938-15-15v-240c0-8.289062 6.710938-15 15-15h60c8.289062 0 15 6.710938 15 15zm-45-285c-24.8125 0-45-20.1875-45-45s20.1875-45 45-45 45 20.1875 45 45-20.1875 45-45 45zm315 285c0 8.289062-6.710938 15-15 15h-60c-8.289062 0-15-6.710938-15-15v-135c0-16.539062-13.460938-30-30-30s-30 13.460938-30 30v135c0 8.289062-6.710938 15-15 15h-60c-8.289062 0-15-6.710938-15-15v-240c0-8.289062 6.710938-15 15-15h60c7.691406 0 14.03125 5.800781 14.898438 13.257812 20.167968-11.660156 45.304687-16.320312 69.726562-12.335937 48.777344 7.902344 80.375 47.890625 80.375 92.625zm0 0" data-original="#000000" class="active-path" data-old_color="#000000" fill="#ED5565"/><path d="m350.820312 211.542969c-23.085937-3.824219-47.492187 3.324219-62.214843 18.0625-7.65625 7.65625-12.949219 14.570312-23.347657 10.253906-5.609374-2.316406-9.257812-7.796875-9.257812-13.859375v-15h-30v210h30v-120c0-33.089844 26.910156-60 60-60s60 26.910156 60 60v120h30v-146.453125c0-30.003906-20.710938-57.425781-55.179688-63.003906zm0 0" data-original="#000000" class="active-path" data-old_color="#000000" fill="#ED5565"/><path d="m106 211h30v210h-30zm0 0" data-original="#000000" class="active-path" data-old_color="#000000" fill="#ED5565"/></g> </svg>
