<?xml version="1.0"?>
<svg xmlns="http://www.w3.org/2000/svg" height="512px" viewBox="0 -46 511.99858 511" width="512px"><g><path d="m508.6875 52.277344c-5.402344-6.734375-12.078125-6.488282-20.066406-3.398438 3.75-6.589844 6.851562-13.636718 9.359375-21.136718 1.917969-5.769532-.160157-10.753907-4.761719-14.722657-4.601562-3.957031-11.46875-4.585937-16.90625-1.847656-24.359375 12.351563-42.554688 17.699219-50.613281 19.265625-21.078125-19.324219-43.652344-29.9375-77.839844-29.9375-23.90625 0-58.125 9.441406-82.457031 36.351562-19.1875 21.226563-28.753906 49.03125-28.535156 82.824219-70.296876-8.597656-127.953126-40.253906-175.824219-96.417969-3.324219-3.894531-8.292969-5.871093-13.507813-5.125-5.082031.71875-9.445312 3.984376-11.570312 8.65625-18.691406 41.277344-18.546875 78.53125.351562 111.269532-8.03125-.753906-16.195312 6.59375-15.570312 15.980468 2.488281 37.53125 16.257812 66.59375 41.089844 86.851563-4.707032 3.765625-6.703126 10.019531-5.027344 15.863281 7.839844 27.1875 30.835937 56.75 65.964844 70.8125-30.9375 16.113282-68.917969 22.515625-106.960938 19.308594-6.898438-.472656-12.976562 3.925781-15.132812 10.558594-2.136719 6.621094.925781 14.078125 6.871093 17.683594 22.28125 13.476562 78.292969 45.042968 160.410157 45.042968 222.613281 0 294.625-196.890625 294.625-292.234375-.066407-5.984375-.050782-5.265625-.367188-8.351562.515625-.601563 2.550781-2.140625 4.207031-3.367188 8.304688-6.273437 22.867188-16.730469 42.953125-46.042969 3.734375-5.464843 3.453125-12.730468-.691406-17.886718zm0 0" data-original="#000000" class="active-path" data-old_color="#000000" fill="#ED5565"/></g> </svg>
