<?xml version="1.0"?>
<svg xmlns="http://www.w3.org/2000/svg" height="512px" viewBox="1 1 511 511.99939" width="512px" class="hovered-paths"><g><path d="m328.773438 304.03125c-4.921876 4.925781-16.457032 21.511719-21.136719 26.191406-24.566407 24.535156-71.117188-16.523437-89.984375-35.316406l-.058594-.058594c-18.796875-18.867187-59.871094-65.4375-35.304688-90 2.035157-2.035156 6.78125-5.757812 12.101563-9.800781 5.15625-3.894531 10.984375-8.230469 14.074219-11.324219 6.007812-6.019531 7.910156-15.246094-18.71875-41.878906-11.476563-11.671875-24.359375-6.851562-35.992188 4.761719-46.902344 46.902343 26.792969 140.625 49.101563 163.152343 22.414062 22.179688 116.132812 95.84375 163.039062 48.984376 11.523438-11.527344 16.476563-24.5 4.976563-35.769532-26.804688-26.792968-36.03125-24.945312-42.097656-18.941406zm0 0" data-original="#000000" class="hovered-path active-path" data-old_color="#000000" fill="#ED5565"/><path d="m256.5 0c-140.609375 0-256 115.390625-256 256 0 41.703125 11.238281 82.878906 30.675781 119.484375l-30.222656 117.882813c-1.289063 5.109374.21875 10.515624 3.941406 14.238281 3.789063 3.785156 9.265625 5.210937 14.238281 3.9375l117.878907-30.222657c36.605469 19.441407 77.78125 30.679688 119.488281 30.679688 140.609375 0 256-115.390625 256-256s-115.390625-256-256-256zm130.605469 379.953125c-17.476563 17.476563-38.175781 24.316406-59.722657 24.316406-56.953124.015625-119.941406-47.753906-145.738281-73.300781-35.316406-35.667969-112.761719-141.914062-49.101562-205.574219 27.183593-27.15625 58.273437-25.242187 78.429687-4.761719 12.726563 12.742188 51.503906 51.519532 18.703125 84.300782-3.792969 3.796875-10.839843 9.230468-17.152343 14.019531-3.882813 2.945313-7.441407 5.550781-9.007813 7.089844.601563 4.996093 17.488281 29.707031 35.316406 47.621093 17.914063 17.84375 42.671875 34.585938 49.90625 34.089844-.746093-.339844 1.859375-3.898437 4.804688-7.78125 4.792969-6.3125 10.226562-13.355468 14.019531-17.152344 32.753906-32.824218 71.542969 5.964844 84.300781 18.722657 20.242188 19.851562 22.855469 50.796875-4.757812 78.410156zm0 0" data-original="#000000" class="hovered-path active-path" data-old_color="#000000" fill="#ED5565"/></g> </svg>
